<svg width="36" height="38" viewBox="0 0 36 38" fill="none" xmlns="http://www.w3.org/2000/svg">
<mask id="mask0" mask-type="alpha" maskUnits="userSpaceOnUse" x="0" y="3" width="30" height="35">
<mask id="path-1-inside-1" mask-type="luminance" fill="white">
<path d="M29.8744 32.8744C27.4269 35.3218 24.3087 36.9885 20.9141 37.6637C17.5194 38.339 14.0007 37.9924 10.803 36.6679C7.60533 35.3434 4.8722 33.1003 2.94928 30.2225C1.02636 27.3446 -6.12038e-07 23.9612 0 20.5C6.12039e-07 17.0388 1.02636 13.6554 2.94928 10.7775C4.87221 7.89966 7.60534 5.65664 10.803 4.33211C14.0008 3.00757 17.5194 2.66102 20.9141 3.33626C24.3088 4.0115 27.427 5.67822 29.8744 8.12564L17.5 20.5L29.8744 32.8744Z"/>
</mask>
<path d="M29.8744 32.8744C27.4269 35.3218 24.3087 36.9885 20.9141 37.6637C17.5194 38.339 14.0007 37.9924 10.803 36.6679C7.60533 35.3434 4.8722 33.1003 2.94928 30.2225C1.02636 27.3446 -6.12038e-07 23.9612 0 20.5C6.12039e-07 17.0388 1.02636 13.6554 2.94928 10.7775C4.87221 7.89966 7.60534 5.65664 10.803 4.33211C14.0008 3.00757 17.5194 2.66102 20.9141 3.33626C24.3088 4.0115 27.427 5.67822 29.8744 8.12564L17.5 20.5L29.8744 32.8744Z" stroke="white" stroke-width="6" mask="url(#path-1-inside-1)"/>
</mask>
<g mask="url(#mask0)">
<circle cx="17.5" cy="20.5" r="16" stroke="white" stroke-width="3"/>
</g>
<path d="M29.7071 11.7071C30.2594 11.7071 30.7071 11.2594 30.7071 10.7071V1.70711C30.7071 1.15482 30.2594 0.707107 29.7071 0.707107C29.1548 0.707107 28.7071 1.15482 28.7071 1.70711V9.70711H20.7071C20.1548 9.70711 19.7071 10.1548 19.7071 10.7071C19.7071 11.2594 20.1548 11.7071 20.7071 11.7071H29.7071ZM27.2929 9.70711L29 11.4142L30.4142 10L28.7071 8.29289L27.2929 9.70711Z" fill="white"/>
</svg>
